<?xml version="1.0" encoding="UTF-8" standalone="no"?>
<!-- Created with Inkscape (http://www.inkscape.org/) -->

<svg
   width="339.22501mm"
   height="394.121mm"
   viewBox="0 0 339.225 394.12102"
   version="1.1"
   id="svg1"
   xml:space="preserve"
   sodipodi:docname="g3.svg"
   inkscape:version="1.3.2 (091e20ef0f, 2023-11-25)"
   xmlns:inkscape="http://www.inkscape.org/namespaces/inkscape"
   xmlns:sodipodi="http://sodipodi.sourceforge.net/DTD/sodipodi-0.dtd"
   xmlns="http://www.w3.org/2000/svg"
   xmlns:svg="http://www.w3.org/2000/svg"><sodipodi:namedview
     id="namedview1"
     pagecolor="#000000"
     bordercolor="#000000"
     borderopacity="0.25"
     inkscape:showpageshadow="2"
     inkscape:pageopacity="0.0"
     inkscape:pagecheckerboard="0"
     inkscape:deskcolor="#d1d1d1"
     inkscape:document-units="mm"
     inkscape:zoom="0.69335359"
     inkscape:cx="551.66657"
     inkscape:cy="666.32669"
     inkscape:window-width="1920"
     inkscape:window-height="1022"
     inkscape:window-x="0"
     inkscape:window-y="0"
     inkscape:window-maximized="1"
     inkscape:current-layer="svg1" /><defs
     id="defs1" /><g
     id="g6"><path
       style="-inkscape-font-specification:'Sans, Bold';fill:#ffffff;fill-opacity:0.135593;stroke-width:8.51489;stroke-linecap:round;stroke-miterlimit:10;paint-order:stroke fill markers"
       d="m 89.554311,139.04124 -46.346669,17.66278 -5.51959,-8.39243 22.735395,-24.38771 -31.398592,11.21547 -5.51959,-8.39243 34.539864,-35.61481 5.464758,8.309068 -25.106049,24.354462 33.093006,-12.21044 4.642337,7.05851 -24.320146,25.54941 32.288826,-13.43317 z m -37.482427,31.1407 40.461544,-26.611 17.801592,27.067 -6.75284,4.44128 -12.300281,-18.70235 -9.642961,6.34205 10.509151,15.97897 -6.530534,4.29506 -10.50915,-15.97898 -10.810124,7.10967 12.35511,18.78572 -6.725089,4.42294 z M 104.82394,224.423 q -5.836053,3.83774 -11.313953,2.10649 -5.450357,-1.7499 -10.038574,-8.60515 l -10.344665,-15.72887 40.461542,-26.611 9.33944,14.20045 q 4.624,7.03075 4.54203,12.77749 -0.082,5.74675 -5.75107,9.47522 -2.75147,1.80894 -5.97154,1.93689 -3.22036,0.1275 -6.38921,-2.08787 1.45016,4.14192 -0.083,7.3796 -1.53313,3.23768 -4.45104,5.15673 z m 7.51281,-36.03263 -10.17097,6.68931 3.83812,5.83581 q 4.34987,6.6139 9.35199,3.32408 5.05795,-3.32598 1.00174,-9.73549 z m -12.91248,27.64094 q 5.44669,-3.58233 2.02247,-9.21252 l -5.172348,-7.86443 -10.921281,7.18278 4.678852,7.11412 q 2.101838,3.1958 4.607692,3.73728 2.505857,0.54147 4.7846,-0.95722 z m 4.68162,33.26739 50.36757,-11.54908 5.08093,7.72549 -30.50068,41.75631 -5.84858,-8.89266 6.50918,-8.26198 -9.63186,-14.64508 -10.16454,2.70408 z m 24.20984,3.94269 6.67102,10.14317 11.8745,-15.0551 z m 23.00876,36.73978 -14.28384,9.39422 -5.50132,-8.36464 40.46154,-26.61102 10.39949,15.81224 q 4.71541,7.16969 3.5679,13.65703 -1.12925,6.51512 -6.93726,10.33496 -5.86386,3.85599 -11.98741,2.11153 -6.10555,-1.71709 -10.82096,-8.8868 z m 19.42485,-12.77551 -12.69982,8.35247 4.89821,7.44756 q 2.35775,3.58482 5.09465,4.05397 2.73694,0.46912 5.37694,-1.26718 2.64023,-1.73596 3.59908,-4.63622 0.98685,-2.91821 -1.37086,-6.50307 z m 4.73704,49.51321 -14.28385,9.39423 -5.50131,-8.36465 40.46154,-26.61101 10.39949,15.81224 q 4.7154,7.16969 3.56789,13.65702 -1.12924,6.51513 -6.93725,10.33498 -5.86387,3.85598 -11.98742,2.11151 -6.10554,-1.71708 -10.82095,-8.88678 z m 19.42485,-12.7755 -12.69982,8.35247 4.89821,7.44756 q 2.35775,3.58482 5.09465,4.05397 2.73693,0.46911 5.37694,-1.26718 2.64022,-1.73596 3.59907,-4.63623 0.98687,-2.9182 -1.37084,-6.50304 z m 9.38477,64.57001 q 2.02839,-1.3346 2.4487,-3.60096 0.44784,-2.28505 -1.35662,-8.78158 -1.7584,-6.48702 -1.56599,-12.18696 0.17563,-5.96757 5.45564,-9.44017 5.08575,-3.34423 10.9577,-1.19543 5.87222,2.14922 10.18555,8.70755 4.42294,6.72509 3.56212,13.10348 -0.83307,6.36015 -6.27982,9.9424 l -5.48303,-8.33685 q 2.55679,-1.68123 3.11786,-4.3994 0.56125,-2.7179 -1.65024,-6.08044 -2.1567,-3.27915 -4.6062,-3.97713 -2.40346,-0.68843 -4.34873,0.59094 -2.00056,1.31636 -1.98226,4.24964 0.0186,2.93372 1.40067,7.63794 2.33951,7.97589 1.51244,13.37667 -0.8088,5.42856 -5.81093,8.71837 -5.30764,3.49111 -10.91313,1.44479 -5.57751,-2.06429 -9.96394,-8.73378 -2.65013,-4.02947 -3.70023,-8.71317 -1.0501,-4.68371 0.3055,-9.03874 1.35561,-4.35503 5.94089,-7.3707 l 5.50131,8.36465 q -3.69582,2.4311 -3.75277,5.61314 -0.0385,3.21011 2.31922,6.79496 2.12009,3.22358 4.43143,3.89299 2.32961,0.69721 4.27488,-0.58217 z"
       id="text1"
       aria-label="WEB APPS" /><path
       d="m 82.790914,74.899096 50.367556,-11.549093 5.08112,7.725376 -30.50069,41.756291 -5.84857,-8.89265 6.50918,-8.261988 -9.631865,-14.645079 -10.164537,2.704083 z m 24.209826,3.942665 6.67102,10.14318 11.8745,-15.055102 z m 23.00875,36.739779 -14.28384,9.39423 -5.50131,-8.36464 40.46154,-26.611029 10.39951,15.812229 q 4.71532,7.16977 3.56789,13.65704 -1.12923,6.51511 -6.93724,10.33496 -5.86387,3.85599 -11.98742,2.11153 -6.10554,-1.7171 -10.82096,-8.88681 z m 19.42486,-12.77552 -12.69983,8.35248 4.89823,7.44756 q 2.35775,3.58483 5.09463,4.05397 2.73694,0.46912 5.37695,-1.26717 2.64022,-1.73597 3.59907,-4.63623 0.98686,-2.91821 -1.37085,-6.50306 z m 31.24376,32.79671 -40.46154,26.61102 -5.48304,-8.33685 40.46153,-26.61102 z"
       id="text2"
       style="-inkscape-font-specification:'Sans, Bold';fill:#ffffff;fill-opacity:0.137255;stroke-width:8.51489;stroke-linecap:round;stroke-miterlimit:10;paint-order:stroke fill markers"
       aria-label="API" /><path
       d="m 148.76454,31.689571 40.46155,-26.611006 8.20633,12.477463 q 5.37339,8.170106 3.41899,16.820326 -1.9361,8.677991 -10.60644,14.380355 l -1.80649,1.18771 q -8.67033,5.702343 -17.4054,4.042657 -8.68901,-1.650201 -14.13549,-9.931476 z m 39.21002,-13.805112 -26.98363,17.74677 2.63178,4.001739 q 3.23477,4.918893 8.11224,5.373555 4.89555,0.482596 10.87906,-3.373061 l 2.11181,-1.389336 q 6.16917,-4.057601 7.70114,-8.568197 1.55013,-4.482965 -1.58322,-9.428752 z m -14.86534,50.820752 40.46154,-26.611028 17.80162,27.06698 -6.75259,4.441657 -12.30022,-18.702387 -9.64301,6.342015 10.50916,15.978958 -6.53072,4.294774 -10.50916,-15.978958 -10.81014,7.109644 12.35505,18.785752 -6.72538,4.422469 z m 45.48772,46.040659 q 2.02837,-1.3346 2.44869,-3.60097 0.44784,-2.28503 -1.35662,-8.78157 -1.75841,-6.487024 -1.56601,-12.186957 0.17565,-5.967573 5.45566,-9.440163 5.08514,-3.345153 10.9577,-1.195433 5.87222,2.149214 10.18557,8.707503 4.42341,6.724777 3.56213,13.1035 -0.83306,6.36014 -6.27982,9.94239 l -5.48304,-8.33685 q 2.55679,-1.68124 3.11786,-4.399395 0.56126,-2.717904 -1.65024,-6.080433 -2.1565,-3.279271 -4.60617,-3.977152 -2.40346,-0.688434 -4.34872,0.590932 -2.00117,1.315428 -1.98227,4.24965 0.0186,2.933712 1.40066,7.637928 2.33953,7.97591 1.51245,13.37667 -0.80879,5.42856 -5.8109,8.71838 -5.30767,3.4911 -10.91316,1.44479 -5.57755,-2.06435 -9.96397,-8.73383 -2.65003,-4.02955 -3.70023,-8.71319 -1.05009,-4.6837 0.30551,-9.038728 1.3556,-4.355024 5.94088,-7.370698 l 5.5013,8.364655 q -3.69584,2.431111 -3.75279,5.613141 -0.0385,3.2101 2.31922,6.79495 2.12002,3.22364 4.43144,3.893 2.3296,0.6972 4.27488,-0.58218 z m 44.86946,3.21373 -40.46154,26.61101 -5.48304,-8.33684 40.46153,-26.61103 z m 6.9698,52.42386 -16.14569,10.61881 q -2.67336,-0.31189 -7.07722,-2.71024 -4.3856,-2.37057 -8.77204,-9.04006 -5.17234,-7.86443 -3.28527,-16.07226 1.9331,-8.19831 11.29817,-14.35757 l 2.41774,-1.59003 q 9.36507,-6.15928 17.53057,-4.88135 8.19327,1.25966 13.25594,8.95733 5.17234,7.86445 3.86033,14.10168 -1.312,6.23722 -6.76474,10.77886 l -5.33682,-8.11454 q 2.74615,-2.48288 3.4471,-5.41209 0.70094,-2.92922 -1.78471,-6.7086 -5.39164,-8.19791 -17.05876,-1.24119 l -3.99221,2.58574 q -6.39167,4.20356 -8.06167,8.68588 -1.65175,4.51001 1.49184,9.2898 1.97407,3.00116 3.62781,4.06326 1.68166,1.04372 2.75947,1.2903 l 6.97509,-4.58762 -4.97166,-7.5585 6.11354,-4.0211 z m 45.28354,27.02639 -40.46153,26.611 -5.48305,-8.33685 15.9765,-33.75652 -26.65018,17.52742 -5.50128,-8.36467 40.46154,-26.61101 5.50128,8.36464 -16.00429,33.77481 26.67792,-17.54574 z"
       id="text3"
       style="-inkscape-font-specification:'Sans, Bold';fill:#ffffff;fill-opacity:0.137255;stroke-width:8.51489;stroke-linecap:round;stroke-miterlimit:10;paint-order:stroke fill markers"
       aria-label="DESIGN" /><path
       d="m 299.02667,255.02405 50.36756,-11.54909 5.08112,7.72537 -30.50069,41.75629 -5.84857,-8.89265 6.50918,-8.26198 -9.63187,-14.64508 -10.16453,2.70408 z m 24.20983,3.94267 6.67102,10.14317 11.8745,-15.0551 z m 23.00875,36.73977 -14.28384,9.39423 -5.50131,-8.36464 40.46154,-26.61102 10.39951,15.81222 q 4.71532,7.16977 3.56789,13.65704 -1.12923,6.51511 -6.93724,10.33496 -5.86387,3.85599 -11.98742,2.11153 -6.10554,-1.7171 -10.82096,-8.88681 z m 19.42486,-12.77552 -12.69983,8.35248 4.89823,7.44756 q 2.35775,3.58483 5.09463,4.05397 2.73694,0.46912 5.37695,-1.26717 2.64022,-1.73597 3.59907,-4.63623 0.98686,-2.91821 -1.37085,-6.50306 z m 31.24376,32.79671 -40.46154,26.61102 -5.48304,-8.33685 40.46153,-26.61102 z"
       id="path1"
       style="-inkscape-font-specification:'Sans, Bold';fill:#ffffff;fill-opacity:0.137255;stroke-width:8.51489;stroke-linecap:round;stroke-miterlimit:10;paint-order:stroke fill markers"
       aria-label="API" /><path
       style="-inkscape-font-specification:'Sans, Bold';fill:#ffffff;fill-opacity:0.135593;stroke-width:8.51489;stroke-linecap:round;stroke-miterlimit:10;paint-order:stroke fill markers"
       d="m 235.66155,219.57045 -46.34667,17.66278 -5.51959,-8.39243 22.73539,-24.38771 -31.39859,11.21547 -5.51959,-8.39243 34.53986,-35.61481 5.46476,8.30907 -25.10605,24.35446 33.09301,-12.21044 4.64234,7.05851 -24.32015,25.54941 32.28883,-13.43317 z m -37.48243,31.1407 40.46154,-26.611 17.80159,27.067 -6.75284,4.44128 -12.30028,-18.70235 -9.64296,6.34205 10.50915,15.97897 -6.53053,4.29506 -10.50915,-15.97898 -10.81012,7.10967 12.35511,18.78572 -6.72509,4.42294 z m 52.75205,54.24106 q -5.83605,3.83774 -11.31395,2.10649 -5.45036,-1.7499 -10.03857,-8.60515 l -10.34467,-15.72887 40.46154,-26.611 9.33944,14.20045 q 4.624,7.03075 4.54203,12.77749 -0.082,5.74675 -5.75107,9.47522 -2.75147,1.80894 -5.97154,1.93689 -3.22036,0.1275 -6.38921,-2.08787 1.45016,4.14192 -0.083,7.3796 -1.53313,3.23768 -4.45104,5.15673 z m 7.51281,-36.03263 -10.17097,6.68931 3.83812,5.83581 q 4.34987,6.6139 9.35199,3.32408 5.05795,-3.32598 1.00174,-9.73549 z m -12.91248,27.64094 q 5.44669,-3.58233 2.02247,-9.21252 l -5.17234,-7.86443 -10.92128,7.18278 4.67885,7.11412 q 2.10184,3.1958 4.60769,3.73728 2.50586,0.54147 4.7846,-0.95722 z m 4.68162,33.26739 50.36757,-11.54908 5.08093,7.72549 -30.50068,41.75631 -5.84858,-8.89266 6.50918,-8.26198 -9.63186,-14.64508 -10.16454,2.70408 z m 24.20984,3.94269 6.67102,10.14317 11.8745,-15.0551 z m 23.00876,36.73978 -14.28384,9.39422 -5.50132,-8.36464 40.46154,-26.61102 10.39949,15.81224 q 4.71541,7.16969 3.5679,13.65703 -1.12925,6.51512 -6.93726,10.33496 -5.86386,3.85599 -11.98741,2.11153 -6.10555,-1.71709 -10.82096,-8.8868 z m 19.42485,-12.77551 -12.69982,8.35247 4.89821,7.44756 q 2.35775,3.58482 5.09465,4.05397 2.73694,0.46912 5.37694,-1.26718 2.64023,-1.73596 3.59908,-4.63622 0.98685,-2.91821 -1.37086,-6.50307 z m 4.73704,49.51321 -14.28385,9.39423 -5.50131,-8.36465 40.46154,-26.61101 10.39949,15.81224 q 4.7154,7.16969 3.56789,13.65702 -1.12924,6.51513 -6.93725,10.33498 -5.86387,3.85598 -11.98742,2.11151 -6.10554,-1.71708 -10.82095,-8.88678 z m 19.42485,-12.7755 -12.69982,8.35247 4.89821,7.44756 q 2.35775,3.58482 5.09465,4.05397 2.73693,0.46911 5.37694,-1.26718 2.64022,-1.73596 3.59907,-4.63623 0.98687,-2.9182 -1.37084,-6.50304 z m 9.38477,64.57001 q 2.02839,-1.3346 2.4487,-3.60096 0.44784,-2.28505 -1.35662,-8.78158 -1.7584,-6.48702 -1.56599,-12.18696 0.17563,-5.96757 5.45564,-9.44017 5.08575,-3.34423 10.9577,-1.19543 5.87222,2.14922 10.18555,8.70755 4.42294,6.72509 3.56212,13.10348 -0.83307,6.36015 -6.27982,9.9424 l -5.48303,-8.33685 q 2.55679,-1.68123 3.11786,-4.3994 0.56125,-2.7179 -1.65024,-6.08044 -2.1567,-3.27915 -4.6062,-3.97713 -2.40346,-0.68843 -4.34873,0.59094 -2.00056,1.31636 -1.98226,4.24964 0.0186,2.93372 1.40067,7.63794 2.33951,7.97589 1.51244,13.37667 -0.8088,5.42856 -5.81093,8.71837 -5.30764,3.49111 -10.91313,1.44479 -5.57751,-2.06429 -9.96394,-8.73378 -2.65013,-4.02947 -3.70023,-8.71317 -1.0501,-4.68371 0.3055,-9.03874 1.35561,-4.35503 5.94089,-7.3707 l 5.50131,8.36465 q -3.69582,2.4311 -3.75277,5.61314 -0.0385,3.21011 2.31922,6.79496 2.12009,3.22358 4.43143,3.89299 2.32961,0.69721 4.27488,-0.58217 z"
       id="path2"
       aria-label="WEB APPS" /><path
       d="m -62.698187,-146.60246 40.46155,-26.61101 8.20633,12.47747 q 5.3733902,8.1701 3.41899,16.82032 -1.9361,8.678 -10.60644,14.38036 l -1.80649,1.18771 q -8.67033,5.70234 -17.4054,4.04266 -8.68901,-1.65021 -14.13549,-9.93148 z m 39.21002,-13.80511 -26.98363,17.74677 2.63178,4.00174 q 3.23477,4.91889 8.11224,5.37355 4.89555,0.4826 10.87906,-3.37306 l 2.11181,-1.38933 q 6.16917,-4.0576 7.70114,-8.5682 1.55013,-4.48297 -1.58322,-9.42875 z m -14.86534,50.82075 40.4615402,-26.61103 17.8016198,27.06698 -6.75259,4.44166 -12.30021977,-18.70239 -9.64301003,6.34202 10.50916,15.97896 -6.53072,4.29477 -10.5091602,-15.97896 -10.81014,7.10965 12.35505,18.785748 -6.72538,4.422469 z m 45.4877202,46.04066 q 2.02837,-1.3346 2.44869,-3.60097 0.4478398,-2.28503 -1.35662,-8.78157 -1.75841,-6.487024 -1.56601,-12.186957 0.17565,-5.967573 5.4556598,-9.440163 5.08514,-3.34515 10.9577,-1.195433 5.87222,2.149214 10.18557,8.707503 4.42341,6.724777 3.56213,13.1035 -0.83306,6.36014 -6.27982,9.94239 l -5.48304,-8.33685 q 2.55679,-1.68124 3.11786,-4.399395 0.56126,-2.717904 -1.65024,-6.080433 -2.1565,-3.279271 -4.60617,-3.977152 -2.40346,-0.688434 -4.34872,0.590932 -2.00117,1.315428 -1.98227,4.24965 0.0186,2.933712 1.40066,7.637928 2.33953,7.97591 1.51245,13.37667 -0.80879,5.42856 -5.8109,8.71838 -5.3076698,3.4911 -10.9131598,1.44479 -5.57755,-2.06435 -9.96397,-8.73383 -2.6500302,-4.02955 -3.7002302,-8.71319 -1.05009,-4.6837 0.30551,-9.038728 1.3556,-4.355024 5.9408802,-7.370698 l 5.50130003,8.364655 q -3.69584003,2.431111 -3.75279003,5.613141 -0.0385,3.2101 2.31922,6.79495 2.12002003,3.22364 4.43144,3.893 2.3296,0.6972 4.27488,-0.58218 z m 44.8694598,3.21373 -40.46154,26.61101 -5.4830398,-8.33684 40.4615298,-26.61103 z m 6.9698,52.42386 -16.14569,10.61881 Q 40.154423,2.39835 35.750563,0 q -4.3856,-2.37057 -8.77204,-9.04006 -5.17234,-7.86443 -3.28527,-16.07226 1.9331,-8.19831 11.29817,-14.35757 l 2.41774,-1.59003 q 9.36507,-6.15928 17.53057,-4.88135 8.19327,1.25966 13.25594,8.95733 5.17234,7.86445 3.86033,14.10168 -1.312,6.23722 -6.76474,10.77886 l -5.33682,-8.11454 q 2.74615,-2.48288 3.4471,-5.41209 0.70094,-2.92922 -1.78471,-6.7086 -5.39164,-8.19791 -17.05876,-1.24119 l -3.99221,2.58574 q -6.39167,4.20356 -8.06167,8.68588 -1.65175,4.51001 1.49184,9.2898 1.97407,3.00116 3.62781,4.06326 1.68166,1.04372 2.75947,1.2903 l 6.97509,-4.58762 -4.97166,-7.5585 6.11354,-4.0211 z m 45.283537,27.02639 -40.461527,26.611 -5.48305,-8.33685 15.9765,-33.75652 -26.65018,17.52742 -5.50128,-8.36467 40.46154,-26.61101 5.50128,8.36464 -16.00429,33.77481 26.67792,-17.54574 z"
       id="path3"
       style="-inkscape-font-specification:'Sans, Bold';fill:#ffffff;fill-opacity:0.137255;stroke-width:8.51489;stroke-linecap:round;stroke-miterlimit:10;paint-order:stroke fill markers"
       aria-label="DESIGN" /><path
       d="m -62.698187,-4.4780569 50.367556,-11.5490931 5.08112,7.7253761 -30.50069,41.7562909 -5.84857,-8.89265 6.50918,-8.261988 -9.631865,-14.6450789 -10.164537,2.704083 z m 24.209826,3.94266501 6.67102,10.14317999 11.8745,-15.055102 z m 23.00875,36.73977889 -14.28384,9.39423 -5.50131,-8.36464 40.46154,-26.611029 10.39951,15.812229 q 4.71532,7.16977 3.56789,13.65704 -1.12923,6.51511 -6.93724,10.33496 -5.86387,3.85599 -11.98742,2.11153 -6.10554,-1.7171 -10.82096,-8.88681 z m 19.42486,-12.77552 -12.69983,8.35248 4.89823,7.44756 q 2.35775,3.58483 5.09463,4.05397 2.73694,0.46912 5.37695,-1.26717 2.64022,-1.73597 3.59907,-4.63623 0.98686,-2.91821 -1.37085,-6.50306 z m 31.24376,32.79671 -40.46154,26.61102 -5.48304,-8.33685 40.46153,-26.61102 z"
       id="path4"
       style="-inkscape-font-specification:'Sans, Bold';fill:#ffffff;fill-opacity:0.137255;stroke-width:8.51489;stroke-linecap:round;stroke-miterlimit:10;paint-order:stroke fill markers"
       aria-label="API" /><path
       d="m -50.81197,184.79144 40.46155,-26.61101 8.20633,12.47747 q 5.37339,8.1701 3.41899,16.82032 -1.9361,8.67799 -10.60644,14.38036 l -1.80649,1.18771 q -8.67033,5.70234 -17.4054,4.04265 -8.68901,-1.6502 -14.13549,-9.93147 z m 39.21002,-13.80511 -26.98363,17.74677 2.63178,4.00174 q 3.23477,4.91889 8.11224,5.37355 4.89555,0.4826 10.87906,-3.37306 l 2.11181,-1.38934 q 6.16917,-4.0576 7.70114,-8.56819 1.55013,-4.48297 -1.58322,-9.42875 z m -14.86534,50.82075 40.46154,-26.61103 17.80162,27.06698 -6.75259,4.44166 -12.30022,-18.70239 -9.64301,6.34202 10.50916,15.97895 -6.53072,4.29478 -10.50916,-15.97896 -10.81014,7.10964 12.35505,18.78576 -6.72538,4.42247 z m 45.48772,46.04066 q 2.02837,-1.3346 2.44869,-3.60097 0.44784,-2.28503 -1.35662,-8.78157 -1.75841,-6.48703 -1.56601,-12.18696 0.17565,-5.96757 5.45566,-9.44016 5.08514,-3.34515 10.9577,-1.19543 5.87222,2.14921 10.18557,8.7075 4.42341,6.72478 3.56213,13.1035 -0.83306,6.36014 -6.27982,9.94239 l -5.48304,-8.33685 q 2.55679,-1.68124 3.11786,-4.3994 0.56126,-2.7179 -1.65024,-6.08043 -2.1565,-3.27927 -4.60617,-3.97715 -2.40346,-0.68844 -4.34872,0.59093 -2.00117,1.31543 -1.98227,4.24965 0.0186,2.93371 1.40066,7.63793 2.33953,7.97591 1.51245,13.37667 -0.80879,5.42856 -5.8109,8.71838 -5.30767,3.4911 -10.91316,1.44479 Q 8.08665,275.55621 3.70023,268.88673 1.0502,264.85718 0,260.17354 q -1.05009,-4.6837 0.30551,-9.03873 1.3556,-4.35502 5.94088,-7.3707 l 5.5013,8.36466 q -3.69584,2.43111 -3.75279,5.61314 -0.0385,3.2101 2.31922,6.79495 2.12002,3.22364 4.43144,3.893 2.3296,0.6972 4.27488,-0.58218 z m 44.86946,3.21373 -40.46154,26.61101 -5.48304,-8.33684 40.46153,-26.61103 z m 6.9698,52.42386 -16.14569,10.61881 q -2.67336,-0.31189 -7.07722,-2.71024 -4.3856,-2.37057 -8.77204,-9.04006 -5.17234,-7.86443 -3.28527,-16.07226 1.9331,-8.19831 11.29817,-14.35757 l 2.41774,-1.59003 q 9.36507,-6.15928 17.53057,-4.88135 8.19327,1.25966 13.25594,8.95733 5.17234,7.86445 3.86033,14.10168 -1.312,6.23722 -6.76474,10.77886 l -5.33682,-8.11454 q 2.74615,-2.48288 3.4471,-5.41209 0.70094,-2.92922 -1.78471,-6.7086 -5.39164,-8.19791 -17.05876,-1.24119 l -3.99221,2.58574 q -6.39167,4.20356 -8.06167,8.68588 -1.65175,4.51001 1.49184,9.2898 1.97407,3.00116 3.62781,4.06326 1.68166,1.04372 2.75947,1.2903 l 6.97509,-4.58762 -4.97166,-7.5585 6.11354,-4.0211 z m 45.28354,27.02639 -40.46153,26.611 -5.48305,-8.33685 15.9765,-33.75652 -26.65018,17.52742 -5.50128,-8.36467 40.46154,-26.61101 5.50128,8.36464 -16.00429,33.77481 26.67792,-17.54574 z"
       id="path5"
       style="-inkscape-font-specification:'Sans, Bold';fill:#ffffff;fill-opacity:0.137255;stroke-width:8.51489;stroke-linecap:round;stroke-miterlimit:10;paint-order:stroke fill markers"
       aria-label="DESIGN" /><path
       style="-inkscape-font-specification:'Sans, Bold';fill:#ffffff;fill-opacity:0.135593;stroke-width:8.51489;stroke-linecap:round;stroke-miterlimit:10;paint-order:stroke fill markers"
       d="m 327.33258,33.093736 -46.34667,17.66278 -5.51959,-8.39243 22.73539,-24.38771 -31.39859,11.21547 -5.51959,-8.39243 34.53987,-35.61481 5.46475,8.3090683 -25.10605,24.3544617 33.09301,-12.2104397 4.64234,7.0585097 -24.32015,25.54941 32.28883,-13.43317 z m -37.48243,31.1407 40.46154,-26.611 17.8016,27.067 -6.75284,4.44128 -12.30028,-18.70235 -9.64297,6.34205 10.50916,15.97897 -6.53054,4.29506 -10.50915,-15.97898 -10.81012,7.10967 12.35511,18.78572 -6.72509,4.42294 z m 52.75206,54.241064 q -5.83606,3.83774 -11.31396,2.10649 -5.45035,-1.7499 -10.03857,-8.60515 l -10.34467,-15.728874 40.46155,-26.611 9.33944,14.20045 q 4.624,7.03075 4.54203,12.77749 -0.082,5.746754 -5.75107,9.475224 -2.75147,1.80894 -5.97154,1.93689 -3.22036,0.1275 -6.38921,-2.08787 1.45016,4.14192 -0.083,7.3796 -1.53313,3.23768 -4.45104,5.15673 z m 7.51281,-36.032634 -10.17097,6.68931 3.83812,5.83581 q 4.34987,6.613904 9.35199,3.32408 5.05795,-3.32598 1.00174,-9.73549 z m -12.91248,27.640944 q 5.44669,-3.58233 2.02247,-9.21252 l -5.17235,-7.864434 -10.92128,7.182784 4.67885,7.11412 q 2.10184,3.1958 4.60769,3.73728 2.50586,0.54147 4.7846,-0.95722 z m 4.68162,33.26739 50.36757,-11.54908 5.08093,7.72549 -30.50068,41.75631 -5.84858,-8.89266 6.50918,-8.26198 -9.63186,-14.64508 -10.16454,2.70408 z m 24.20984,3.94269 6.67102,10.14317 11.8745,-15.0551 z m 23.00876,36.73978 -14.28384,9.39422 -5.50132,-8.36464 40.46154,-26.61102 10.39949,15.81224 q 4.71541,7.16969 3.5679,13.65703 -1.12925,6.51512 -6.93726,10.33496 -5.86386,3.85599 -11.98741,2.11153 -6.10555,-1.71709 -10.82096,-8.8868 z m 19.42485,-12.77551 -12.69982,8.35247 4.89821,7.44756 q 2.35775,3.58482 5.09465,4.05397 2.73694,0.46912 5.37694,-1.26718 2.64023,-1.73596 3.59908,-4.63622 0.98685,-2.91821 -1.37086,-6.50307 z m 4.73704,49.51321 -14.28385,9.39423 -5.50131,-8.36465 40.46154,-26.61101 10.39949,15.81224 q 4.7154,7.16969 3.56789,13.65702 -1.12924,6.51513 -6.93725,10.33498 -5.86387,3.85598 -11.98742,2.11151 -6.10554,-1.71708 -10.82095,-8.88678 z m 19.42485,-12.7755 -12.69982,8.35247 4.89821,7.44756 q 2.35775,3.58482 5.09465,4.05397 2.73693,0.46911 5.37694,-1.26718 2.64022,-1.73596 3.59907,-4.63623 0.98687,-2.9182 -1.37084,-6.50304 z m 9.38477,64.57001 q 2.02839,-1.3346 2.4487,-3.60096 0.44784,-2.28505 -1.35662,-8.78158 -1.7584,-6.48702 -1.56599,-12.18696 0.17563,-5.96757 5.45564,-9.44017 5.08575,-3.34423 10.9577,-1.19543 5.87222,2.14922 10.18555,8.70755 4.42294,6.72509 3.56212,13.10348 -0.83307,6.36015 -6.27982,9.9424 l -5.48303,-8.33685 q 2.55679,-1.68123 3.11786,-4.3994 0.56125,-2.7179 -1.65024,-6.08044 -2.1567,-3.27915 -4.6062,-3.97713 -2.40346,-0.68843 -4.34873,0.59094 -2.00056,1.31636 -1.98226,4.24964 0.0186,2.93372 1.40067,7.63794 2.33951,7.97589 1.51244,13.37667 -0.8088,5.42856 -5.81093,8.71837 -5.30764,3.49111 -10.91313,1.44479 -5.57751,-2.06429 -9.96394,-8.73378 -2.65013,-4.02947 -3.70023,-8.71317 -1.0501,-4.68371 0.3055,-9.03874 1.35561,-4.35503 5.94089,-7.3707 l 5.50131,8.36465 q -3.69582,2.4311 -3.75277,5.61314 -0.0385,3.21011 2.31922,6.79496 2.12009,3.22358 4.43143,3.89299 2.32961,0.69721 4.27488,-0.58217 z"
       id="path6"
       aria-label="WEB APPS" /></g></svg>
