<svg xmlns="http://www.w3.org/2000/svg" version="1.1" xmlns:xlink="http://www.w3.org/1999/xlink" xmlns:svgjs="http://svgjs.dev/svgjs" width="1440" height="800" preserveAspectRatio="none" viewBox="0 0 1440 800"><g mask="url(&quot;#SvgjsMask1507&quot;)" fill="none"><rect width="1440" height="800" x="0" y="0" fill="url(&quot;#SvgjsLinearGradient1508&quot;)"></rect><path d="M251.67 265.86L316.63 303.36L316.63 378.36L251.67 415.86L186.72 378.36L186.72 303.36zM381.58 715.86L446.53 753.36L446.53 828.36L381.58 865.86L316.63 828.36L316.63 753.36zM511.49 40.86L576.44 78.36L576.44 153.36L511.49 190.86L446.53 153.36L446.53 78.36zM576.44 -71.64L641.39 -34.14L641.39 40.86L576.44 78.36L511.49 40.86L511.49 -34.14zM641.39 40.86L706.35 78.36L706.35 153.36L641.39 190.86L576.44 153.36L576.44 78.36zM771.3 265.86L836.26 303.36L836.26 378.36L771.3 415.86L706.35 378.36L706.35 303.36zM706.35 378.36L771.3 415.86L771.3 490.86L706.35 528.36L641.39 490.86L641.39 415.86zM771.3 490.86L836.26 528.36L836.26 603.36L771.3 640.86L706.35 603.36L706.35 528.36zM901.21 40.86L966.16 78.36L966.16 153.36L901.21 190.86L836.25 153.36L836.25 78.36zM836.25 153.36L901.21 190.86L901.21 265.86L836.25 303.36L771.3 265.86L771.3 190.86zM901.21 265.86L966.16 303.36L966.16 378.36L901.21 415.86L836.25 378.36L836.25 303.36zM836.25 603.36L901.21 640.86L901.21 715.86L836.25 753.36L771.3 715.86L771.3 640.86zM1096.07 -71.64L1161.02 -34.14L1161.02 40.86L1096.07 78.36L1031.12 40.86L1031.12 -34.14zM1161.02 490.86L1225.98 528.36L1225.98 603.36L1161.02 640.86L1096.07 603.36L1096.07 528.36zM1225.98 378.36L1290.93 415.86L1290.93 490.86L1225.98 528.36L1161.02 490.86L1161.02 415.86zM1420.84 40.86L1485.79 78.36L1485.79 153.36L1420.84 190.86L1355.88 153.36L1355.88 78.36zM1550.75 715.86L1615.7 753.36L1615.7 828.36L1550.75 865.86L1485.79 828.36L1485.79 753.36z" stroke="rgba(255, 255, 255, 0.17)" stroke-width="2"></path><path d="M37.82 -17.75L81.12 7.25L81.12 57.25L37.82 82.25L-5.48 57.25L-5.48 7.25zM167.73 657.25L211.03 682.25L211.03 732.25L167.73 757.25L124.43 732.25L124.43 682.25zM211.03 -17.75L254.33 7.25L254.33 57.25L211.03 82.25L167.73 57.25L167.73 7.25zM211.03 132.25L254.33 157.25L254.33 207.25L211.03 232.25L167.73 207.25L167.73 157.25zM254.33 357.25L297.63 382.25L297.63 432.25L254.33 457.25L211.03 432.25L211.03 382.25zM211.03 432.25L254.33 457.25L254.33 507.25L211.03 532.25L167.73 507.25L167.73 457.25zM254.33 657.25L297.63 682.25L297.63 732.25L254.33 757.25L211.03 732.25L211.03 682.25zM297.63 -17.75L340.94 7.25L340.94 57.25L297.63 82.25L254.33 57.25L254.33 7.25zM297.63 132.25L340.94 157.25L340.94 207.25L297.63 232.25L254.33 207.25L254.33 157.25zM340.94 207.25L384.24 232.25L384.24 282.25L340.94 307.25L297.63 282.25L297.63 232.25zM340.94 357.25L384.24 382.25L384.24 432.25L340.94 457.25L297.63 432.25L297.63 382.25zM427.54 57.25L470.85 82.25L470.85 132.25L427.54 157.25L384.24 132.25L384.24 82.25zM384.24 432.25L427.54 457.25L427.54 507.25L384.24 532.25L340.94 507.25L340.94 457.25zM514.15 357.25L557.45 382.25L557.45 432.25L514.15 457.25L470.85 432.25L470.85 382.25zM470.85 732.25L514.15 757.25L514.15 807.25L470.85 832.25L427.54 807.25L427.54 757.25zM557.45 -17.75L600.75 7.25L600.75 57.25L557.45 82.25L514.15 57.25L514.15 7.25zM600.75 207.25L644.06 232.25L644.06 282.25L600.75 307.25L557.45 282.25L557.45 232.25zM557.45 432.25L600.75 457.25L600.75 507.25L557.45 532.25L514.15 507.25L514.15 457.25zM557.45 582.25L600.75 607.25L600.75 657.25L557.45 682.25L514.15 657.25L514.15 607.25zM600.75 657.25L644.06 682.25L644.06 732.25L600.75 757.25L557.45 732.25L557.45 682.25zM557.45 732.25L600.75 757.25L600.75 807.25L557.45 832.25L514.15 807.25L514.15 757.25zM644.06 132.25L687.36 157.25L687.36 207.25L644.06 232.25L600.75 207.25L600.75 157.25zM644.06 282.25L687.36 307.25L687.36 357.25L644.06 382.25L600.75 357.25L600.75 307.25zM687.36 657.25L730.66 682.25L730.66 732.25L687.36 757.25L644.06 732.25L644.06 682.25zM687.36 807.25L730.66 832.25L730.66 882.25L687.36 907.25L644.06 882.25L644.06 832.25zM730.66 132.25L773.96 157.25L773.96 207.25L730.66 232.25L687.36 207.25L687.36 157.25zM730.66 432.25L773.96 457.25L773.96 507.25L730.66 532.25L687.36 507.25L687.36 457.25zM773.96 507.25L817.27 532.25L817.27 582.25L773.96 607.25L730.66 582.25L730.66 532.25zM773.96 657.25L817.27 682.25L817.27 732.25L773.96 757.25L730.66 732.25L730.66 682.25zM730.66 732.25L773.96 757.25L773.96 807.25L730.66 832.25L687.36 807.25L687.36 757.25zM817.27 132.25L860.57 157.25L860.57 207.25L817.27 232.25L773.96 207.25L773.96 157.25zM817.27 732.25L860.57 757.25L860.57 807.25L817.27 832.25L773.96 807.25L773.96 757.25zM860.57 807.25L903.87 832.25L903.87 882.25L860.57 907.25L817.27 882.25L817.27 832.25zM903.87 132.25L947.17 157.25L947.17 207.25L903.87 232.25L860.57 207.25L860.57 157.25zM947.17 207.25L990.48 232.25L990.48 282.25L947.17 307.25L903.87 282.25L903.87 232.25zM947.17 357.25L990.48 382.25L990.48 432.25L947.17 457.25L903.87 432.25L903.87 382.25zM947.17 657.25L990.48 682.25L990.48 732.25L947.17 757.25L903.87 732.25L903.87 682.25zM947.17 807.25L990.48 832.25L990.48 882.25L947.17 907.25L903.87 882.25L903.87 832.25zM990.48 -17.75L1033.78 7.25L1033.78 57.25L990.48 82.25L947.17 57.25L947.17 7.25zM1033.78 57.25L1077.08 82.25L1077.08 132.25L1033.78 157.25L990.48 132.25L990.48 82.25zM990.48 282.25L1033.78 307.25L1033.78 357.25L990.48 382.25L947.17 357.25L947.17 307.25zM990.48 582.25L1033.78 607.25L1033.78 657.25L990.48 682.25L947.17 657.25L947.17 607.25zM1033.78 807.25L1077.08 832.25L1077.08 882.25L1033.78 907.25L990.48 882.25L990.48 832.25zM1077.08 132.25L1120.38 157.25L1120.38 207.25L1077.08 232.25L1033.78 207.25L1033.78 157.25zM1120.38 357.25L1163.68 382.25L1163.68 432.25L1120.38 457.25L1077.08 432.25L1077.08 382.25zM1077.08 582.25L1120.38 607.25L1120.38 657.25L1077.08 682.25L1033.78 657.25L1033.78 607.25zM1120.38 657.25L1163.68 682.25L1163.68 732.25L1120.38 757.25L1077.08 732.25L1077.08 682.25zM1077.08 732.25L1120.38 757.25L1120.38 807.25L1077.08 832.25L1033.78 807.25L1033.78 757.25zM1206.99 57.25L1250.29 82.25L1250.29 132.25L1206.99 157.25L1163.68 132.25L1163.68 82.25zM1163.68 132.25L1206.99 157.25L1206.99 207.25L1163.68 232.25L1120.38 207.25L1120.38 157.25zM1163.68 282.25L1206.99 307.25L1206.99 357.25L1163.68 382.25L1120.38 357.25L1120.38 307.25zM1163.68 732.25L1206.99 757.25L1206.99 807.25L1163.68 832.25L1120.38 807.25L1120.38 757.25zM1250.29 132.25L1293.59 157.25L1293.59 207.25L1250.29 232.25L1206.99 207.25L1206.99 157.25zM1293.59 207.25L1336.89 232.25L1336.89 282.25L1293.59 307.25L1250.29 282.25L1250.29 232.25zM1293.59 357.25L1336.89 382.25L1336.89 432.25L1293.59 457.25L1250.29 432.25L1250.29 382.25zM1250.29 432.25L1293.59 457.25L1293.59 507.25L1250.29 532.25L1206.99 507.25L1206.99 457.25zM1293.59 657.25L1336.89 682.25L1336.89 732.25L1293.59 757.25L1250.29 732.25L1250.29 682.25zM1250.29 732.25L1293.59 757.25L1293.59 807.25L1250.29 832.25L1206.99 807.25L1206.99 757.25zM1293.59 807.25L1336.89 832.25L1336.89 882.25L1293.59 907.25L1250.29 882.25L1250.29 832.25zM1336.89 282.25L1380.2 307.25L1380.2 357.25L1336.89 382.25L1293.59 357.25L1293.59 307.25zM1380.2 357.25L1423.5 382.25L1423.5 432.25L1380.2 457.25L1336.89 432.25L1336.89 382.25zM1380.2 507.25L1423.5 532.25L1423.5 582.25L1380.2 607.25L1336.89 582.25L1336.89 532.25zM1336.89 582.25L1380.2 607.25L1380.2 657.25L1336.89 682.25L1293.59 657.25L1293.59 607.25zM1380.2 657.25L1423.5 682.25L1423.5 732.25L1380.2 757.25L1336.89 732.25L1336.89 682.25zM1423.5 -17.75L1466.8 7.25L1466.8 57.25L1423.5 82.25L1380.2 57.25L1380.2 7.25zM1423.5 582.25L1466.8 607.25L1466.8 657.25L1423.5 682.25L1380.2 657.25L1380.2 607.25zM1466.8 657.25L1510.11 682.25L1510.11 732.25L1466.8 757.25L1423.5 732.25L1423.5 682.25z" stroke="rgba(255, 255, 255, 0.14)" stroke-width="2"></path></g><defs><mask id="SvgjsMask1507"><rect width="1440" height="800" fill="#ffffff"></rect></mask><linearGradient x1="88.89%" y1="120%" x2="11.11%" y2="-20%" gradientUnits="userSpaceOnUse" id="SvgjsLinearGradient1508"><stop stop-color="rgba(14, 42, 71, 0.89)" offset="0"></stop><stop stop-color="rgba(32, 163, 158, 0.89)" offset="1"></stop></linearGradient></defs></svg>