<svg xmlns="http://www.w3.org/2000/svg" version="1.1" xmlns:xlink="http://www.w3.org/1999/xlink" xmlns:svgjs="http://svgjs.dev/svgjs" width="2000" height="1000" preserveAspectRatio="none" viewBox="0 0 2000 1000"><g mask="url(&quot;#SvgjsMask1219&quot;)" fill="none"><rect width="2000" height="1000" x="0" y="0" fill="url(&quot;#SvgjsLinearGradient1220&quot;)"></rect><path d="M37.62 -59.05L106.9 -19.05L106.9 60.95L37.62 100.95L-31.66 60.95L-31.66 -19.05zM106.9 60.95L176.19 100.95L176.19 180.95L106.9 220.95L37.62 180.95L37.62 100.95zM245.47 60.95L314.76 100.95L314.76 180.95L245.47 220.95L176.19 180.95L176.19 100.95zM176.19 660.95L245.47 700.95L245.47 780.95L176.19 820.95L106.9 780.95L106.9 700.95zM314.76 -59.05L384.04 -19.05L384.04 60.95L314.76 100.95L245.47 60.95L245.47 -19.05zM314.76 660.95L384.04 700.95L384.04 780.95L314.76 820.95L245.47 780.95L245.47 700.95zM453.32 -59.05L522.61 -19.05L522.61 60.95L453.32 100.95L384.04 60.95L384.04 -19.05zM453.32 420.95L522.61 460.95L522.61 540.95L453.32 580.95L384.04 540.95L384.04 460.95zM661.18 540.95L730.46 580.95L730.46 660.95L661.18 700.95L591.89 660.95L591.89 580.95zM591.89 900.95L661.18 940.95L661.18 1020.95L591.89 1060.95L522.61 1020.95L522.61 940.95zM869.03 660.95L938.31 700.95L938.31 780.95L869.03 820.95L799.74 780.95L799.74 700.95zM1076.88 780.95L1146.16 820.95L1146.16 900.95L1076.88 940.95L1007.6 900.95L1007.6 820.95zM1423.3 180.95L1492.58 220.95L1492.58 300.95L1423.3 340.95L1354.02 300.95L1354.02 220.95zM1423.3 900.95L1492.58 940.95L1492.58 1020.95L1423.3 1060.95L1354.02 1020.95L1354.02 940.95zM1561.87 180.95L1631.15 220.95L1631.15 300.95L1561.87 340.95L1492.58 300.95L1492.58 220.95zM1561.87 420.95L1631.15 460.95L1631.15 540.95L1561.87 580.95L1492.58 540.95L1492.58 460.95zM1631.15 540.95L1700.44 580.95L1700.44 660.95L1631.15 700.95L1561.87 660.95L1561.87 580.95zM1769.72 540.95L1839 580.95L1839 660.95L1769.72 700.95L1700.44 660.95L1700.44 580.95zM1769.72 780.95L1839 820.95L1839 900.95L1769.72 940.95L1700.44 900.95L1700.44 820.95zM1908.29 300.95L1977.57 340.95L1977.57 420.95L1908.29 460.95L1839 420.95L1839 340.95zM1977.57 180.95L2046.86 220.95L2046.86 300.95L1977.57 340.95L1908.29 300.95L1908.29 220.95z" stroke="rgba(0, 115, 115, 0.5)" stroke-width="2"></path><path d="M86.58 424.67L171.46 473.67L171.46 571.67L86.58 620.67L1.71 571.67L1.71 473.67zM1.71 571.67L86.58 620.67L86.58 718.67L1.71 767.67L-83.16 718.67L-83.16 620.67zM86.58 1012.67L171.46 1061.67L171.46 1159.67L86.58 1208.67L1.71 1159.67L1.71 1061.67zM256.33 718.67L341.2 767.67L341.2 865.67L256.33 914.67L171.46 865.67L171.46 767.67zM341.2 277.67L426.07 326.67L426.07 424.67L341.2 473.67L256.33 424.67L256.33 326.67zM426.07 424.67L510.95 473.67L510.95 571.67L426.07 620.67L341.2 571.67L341.2 473.67zM510.95 571.67L595.82 620.67L595.82 718.67L510.95 767.67L426.07 718.67L426.07 620.67zM510.95 865.67L595.82 914.67L595.82 1012.67L510.95 1061.67L426.07 1012.67L426.07 914.67zM595.82 1012.67L680.69 1061.67L680.69 1159.67L595.82 1208.67L510.95 1159.67L510.95 1061.67zM765.57 424.67L850.44 473.67L850.44 571.67L765.57 620.67L680.69 571.67L680.69 473.67zM765.57 718.67L850.44 767.67L850.44 865.67L765.57 914.67L680.69 865.67L680.69 767.67zM850.44 -16.33L935.31 32.67L935.31 130.67L850.44 179.67L765.57 130.67L765.57 32.67zM935.31 130.67L1020.18 179.67L1020.18 277.67L935.31 326.67L850.44 277.67L850.44 179.67zM935.31 1012.67L1020.18 1061.67L1020.18 1159.67L935.31 1208.67L850.44 1159.67L850.44 1061.67zM1020.18 865.67L1105.06 914.67L1105.06 1012.67L1020.18 1061.67L935.31 1012.67L935.31 914.67zM1444.55 130.67L1529.42 179.67L1529.42 277.67L1444.55 326.67L1359.68 277.67L1359.68 179.67zM1359.68 571.67L1444.55 620.67L1444.55 718.67L1359.68 767.67L1274.8 718.67L1274.8 620.67zM1444.55 718.67L1529.42 767.67L1529.42 865.67L1444.55 914.67L1359.68 865.67L1359.68 767.67zM1614.3 130.67L1699.17 179.67L1699.17 277.67L1614.3 326.67L1529.42 277.67L1529.42 179.67zM1529.42 277.67L1614.3 326.67L1614.3 424.67L1529.42 473.67L1444.55 424.67L1444.55 326.67zM1614.3 718.67L1699.17 767.67L1699.17 865.67L1614.3 914.67L1529.42 865.67L1529.42 767.67zM1699.17 -16.33L1784.04 32.67L1784.04 130.67L1699.17 179.67L1614.3 130.67L1614.3 32.67zM1784.04 1012.67L1868.91 1061.67L1868.91 1159.67L1784.04 1208.67L1699.17 1159.67L1699.17 1061.67zM1953.79 718.67L2038.66 767.67L2038.66 865.67L1953.79 914.67L1868.91 865.67L1868.91 767.67zM1953.79 1012.67L2038.66 1061.67L2038.66 1159.67L1953.79 1208.67L1868.91 1159.67L1868.91 1061.67z" stroke="rgba(0, 80, 80, 0.5)" stroke-width="2"></path></g><defs><mask id="SvgjsMask1219"><rect width="2000" height="1000" fill="#ffffff"></rect></mask><linearGradient x1="87.5%" y1="125%" x2="12.5%" y2="-25%" gradientUnits="userSpaceOnUse" id="SvgjsLinearGradient1220"><stop stop-color="rgba(14,42,71, 0.95)" offset="0"></stop><stop stop-color="rgba(0, 73, 73, 0.95)" offset="1"></stop></linearGradient></defs></svg>
