<svg xmlns="http://www.w3.org/2000/svg" version="1.1" width="1440" height="900"
     preserveAspectRatio="none" viewBox="0 0 1440 900">
    <g mask="url(&quot;#SvgjsMask1375&quot;)" fill="none">
        <rect width="1440" height="900" x="0" y="0"
              fill="rgba(25, 46, 39, 1)"/>
        <path d="M400.63 -71.98L497.63 -15.98L497.63 96.02L400.63 152.02L303.63 96.02L303.63 -15.98zM497.63 96.02L594.63 152.02L594.63 264.02L497.63 320.02L400.63 264.02L400.63 152.02zM400.63 600.02L497.63 656.02L497.63 768.02L400.63 824.02L303.63 768.02L303.63 656.02zM497.63 768.02L594.63 824.02L594.63 936.02L497.63 992.02L400.63 936.02L400.63 824.02zM1079.61 432.02L1176.61 488.02L1176.61 600.02L1079.61 656.02L982.62 600.02L982.62 488.02zM1176.61 -71.98L1273.61 -15.98L1273.61 96.02L1176.61 152.02L1079.61 96.02L1079.61 -15.98zM1467.6 768.02L1564.6 824.02L1564.6 936.02L1467.6 992.02L1370.61 936.02L1370.61 824.02z"
              stroke="rgba(0, 77, 56, 1)" stroke-width="2"/>
        <path d="M389.43 -71.98 a11.2 11.2 0 1 0 22.4 0 a11.2 11.2 0 1 0 -22.4 0zM486.43 -15.98 a11.2 11.2 0 1 0 22.4 0 a11.2 11.2 0 1 0 -22.4 0zM486.43 96.02 a11.2 11.2 0 1 0 22.4 0 a11.2 11.2 0 1 0 -22.4 0zM389.43 152.02 a11.2 11.2 0 1 0 22.4 0 a11.2 11.2 0 1 0 -22.4 0zM292.43 96.02 a11.2 11.2 0 1 0 22.4 0 a11.2 11.2 0 1 0 -22.4 0zM292.43 -15.98 a11.2 11.2 0 1 0 22.4 0 a11.2 11.2 0 1 0 -22.4 0zM583.43 152.02 a11.2 11.2 0 1 0 22.4 0 a11.2 11.2 0 1 0 -22.4 0zM583.43 264.02 a11.2 11.2 0 1 0 22.4 0 a11.2 11.2 0 1 0 -22.4 0zM486.43 320.02 a11.2 11.2 0 1 0 22.4 0 a11.2 11.2 0 1 0 -22.4 0zM389.43 264.02 a11.2 11.2 0 1 0 22.4 0 a11.2 11.2 0 1 0 -22.4 0zM389.43 600.02 a11.2 11.2 0 1 0 22.4 0 a11.2 11.2 0 1 0 -22.4 0zM486.43 656.02 a11.2 11.2 0 1 0 22.4 0 a11.2 11.2 0 1 0 -22.4 0zM486.43 768.02 a11.2 11.2 0 1 0 22.4 0 a11.2 11.2 0 1 0 -22.4 0zM389.43 824.02 a11.2 11.2 0 1 0 22.4 0 a11.2 11.2 0 1 0 -22.4 0zM292.43 768.02 a11.2 11.2 0 1 0 22.4 0 a11.2 11.2 0 1 0 -22.4 0zM292.43 656.02 a11.2 11.2 0 1 0 22.4 0 a11.2 11.2 0 1 0 -22.4 0zM583.43 824.02 a11.2 11.2 0 1 0 22.4 0 a11.2 11.2 0 1 0 -22.4 0zM583.43 936.02 a11.2 11.2 0 1 0 22.4 0 a11.2 11.2 0 1 0 -22.4 0zM486.43 992.02 a11.2 11.2 0 1 0 22.4 0 a11.2 11.2 0 1 0 -22.4 0zM389.43 936.02 a11.2 11.2 0 1 0 22.4 0 a11.2 11.2 0 1 0 -22.4 0zM1068.41 432.02 a11.2 11.2 0 1 0 22.4 0 a11.2 11.2 0 1 0 -22.4 0zM1165.41 488.02 a11.2 11.2 0 1 0 22.4 0 a11.2 11.2 0 1 0 -22.4 0zM1165.41 600.02 a11.2 11.2 0 1 0 22.4 0 a11.2 11.2 0 1 0 -22.4 0zM1068.41 656.02 a11.2 11.2 0 1 0 22.4 0 a11.2 11.2 0 1 0 -22.4 0zM971.42 600.02 a11.2 11.2 0 1 0 22.4 0 a11.2 11.2 0 1 0 -22.4 0zM971.42 488.02 a11.2 11.2 0 1 0 22.4 0 a11.2 11.2 0 1 0 -22.4 0zM1165.41 -71.98 a11.2 11.2 0 1 0 22.4 0 a11.2 11.2 0 1 0 -22.4 0zM1262.41 -15.98 a11.2 11.2 0 1 0 22.4 0 a11.2 11.2 0 1 0 -22.4 0zM1262.41 96.02 a11.2 11.2 0 1 0 22.4 0 a11.2 11.2 0 1 0 -22.4 0zM1165.41 152.02 a11.2 11.2 0 1 0 22.4 0 a11.2 11.2 0 1 0 -22.4 0zM1068.41 96.02 a11.2 11.2 0 1 0 22.4 0 a11.2 11.2 0 1 0 -22.4 0zM1068.41 -15.98 a11.2 11.2 0 1 0 22.4 0 a11.2 11.2 0 1 0 -22.4 0zM1456.4 768.02 a11.2 11.2 0 1 0 22.4 0 a11.2 11.2 0 1 0 -22.4 0zM1553.4 824.02 a11.2 11.2 0 1 0 22.4 0 a11.2 11.2 0 1 0 -22.4 0zM1553.4 936.02 a11.2 11.2 0 1 0 22.4 0 a11.2 11.2 0 1 0 -22.4 0zM1456.4 992.02 a11.2 11.2 0 1 0 22.4 0 a11.2 11.2 0 1 0 -22.4 0zM1359.41 936.02 a11.2 11.2 0 1 0 22.4 0 a11.2 11.2 0 1 0 -22.4 0zM1359.41 824.02 a11.2 11.2 0 1 0 22.4 0 a11.2 11.2 0 1 0 -22.4 0z"
              fill="rgba(0, 77, 56, 1)"/>
        <path d="M36.91 139.61L94.07 172.61L94.07 238.61L36.91 271.61L-20.25 238.61L-20.25 172.61zM94.07 436.61L151.23 469.61L151.23 535.61L94.07 568.61L36.91 535.61L36.91 469.61zM94.07 832.61L151.23 865.61L151.23 931.61L94.07 964.61L36.91 931.61L36.91 865.61zM208.39 634.61L265.55 667.61L265.55 733.61L208.39 766.61L151.23 733.61L151.23 667.61zM265.55 -58.39L322.71 -25.39L322.71 40.61L265.55 73.61L208.39 40.61L208.39 -25.39zM322.71 40.61L379.87 73.61L379.87 139.61L322.71 172.61L265.55 139.61L265.55 73.61zM322.71 238.61L379.87 271.61L379.87 337.61L322.71 370.61L265.55 337.61L265.55 271.61zM322.71 634.61L379.87 667.61L379.87 733.61L322.71 766.61L265.55 733.61L265.55 667.61zM265.55 733.61L322.71 766.61L322.71 832.61L265.55 865.61L208.39 832.61L208.39 766.61zM379.87 733.61L437.03 766.61L437.03 832.61L379.87 865.61L322.71 832.61L322.71 766.61zM494.18 -58.39L551.34 -25.39L551.34 40.61L494.18 73.61L437.03 40.61L437.03 -25.39zM494.18 535.61L551.34 568.61L551.34 634.61L494.18 667.61L437.03 634.61L437.03 568.61zM665.66 40.61L722.82 73.61L722.82 139.61L665.66 172.61L608.5 139.61L608.5 73.61zM608.5 337.61L665.66 370.61L665.66 436.61L608.5 469.61L551.34 436.61L551.34 370.61zM608.5 733.61L665.66 766.61L665.66 832.61L608.5 865.61L551.34 832.61L551.34 766.61zM665.66 832.61L722.82 865.61L722.82 931.61L665.66 964.61L608.5 931.61L608.5 865.61zM779.98 436.61L837.14 469.61L837.14 535.61L779.98 568.61L722.82 535.61L722.82 469.61zM894.3 40.61L951.46 73.61L951.46 139.61L894.3 172.61L837.14 139.61L837.14 73.61zM837.14 535.61L894.3 568.61L894.3 634.61L837.14 667.61L779.98 634.61L779.98 568.61zM894.3 634.61L951.46 667.61L951.46 733.61L894.3 766.61L837.14 733.61L837.14 667.61zM951.46 535.61L1008.62 568.61L1008.62 634.61L951.46 667.61L894.3 634.61L894.3 568.61zM1008.62 832.61L1065.78 865.61L1065.78 931.61L1008.62 964.61L951.46 931.61L951.46 865.61zM1122.94 40.61L1180.1 73.61L1180.1 139.61L1122.94 172.61L1065.78 139.61L1065.78 73.61zM1065.78 337.61L1122.94 370.61L1122.94 436.61L1065.78 469.61L1008.62 436.61L1008.62 370.61zM1065.78 535.61L1122.94 568.61L1122.94 634.61L1065.78 667.61L1008.62 634.61L1008.62 568.61zM1122.94 832.61L1180.1 865.61L1180.1 931.61L1122.94 964.61L1065.78 931.61L1065.78 865.61zM1180.1 139.61L1237.26 172.61L1237.26 238.61L1180.1 271.61L1122.94 238.61L1122.94 172.61zM1294.41 -58.39L1351.57 -25.39L1351.57 40.61L1294.41 73.61L1237.26 40.61L1237.26 -25.39zM1351.57 634.61L1408.73 667.61L1408.73 733.61L1351.57 766.61L1294.41 733.61L1294.41 667.61zM1465.89 238.61L1523.05 271.61L1523.05 337.61L1465.89 370.61L1408.73 337.61L1408.73 271.61zM1408.73 535.61L1465.89 568.61L1465.89 634.61L1408.73 667.61L1351.57 634.61L1351.57 568.61zM1465.89 634.61L1523.05 667.61L1523.05 733.61L1465.89 766.61L1408.73 733.61L1408.73 667.61zM1465.89 832.61L1523.05 865.61L1523.05 931.61L1465.89 964.61L1408.73 931.61L1408.73 865.61z"
              stroke="rgba(0, 102, 75, 1)" stroke-width="2"/>
    </g>
    <defs>
        <mask id="SvgjsMask1375">
            <rect width="1440" height="900" fill="#ffffff"/>
        </mask>
    </defs>
</svg>