<svg xmlns="http://www.w3.org/2000/svg" version="1.1" xmlns:xlink="http://www.w3.org/1999/xlink" xmlns:svgjs="http://svgjs.dev/svgjs" width="2000" height="1000" preserveAspectRatio="none" viewBox="0 0 2000 1000"><g mask="url(&quot;#SvgjsMask1064&quot;)" fill="none"><rect width="2000" height="1000" x="0" y="0" fill="url(&quot;#SvgjsLinearGradient1065&quot;)"></rect><path d="M136.93 296.93L206.22 336.93L206.22 416.93L136.93 456.93L67.65 416.93L67.65 336.93zM67.65 416.93L136.93 456.93L136.93 536.93L67.65 576.93L-1.63 536.93L-1.63 456.93zM344.79 416.93L414.07 456.93L414.07 536.93L344.79 576.93L275.5 536.93L275.5 456.93zM483.35 -63.07L552.64 -23.07L552.64 56.93L483.35 96.93L414.07 56.93L414.07 -23.07zM483.35 416.93L552.64 456.93L552.64 536.93L483.35 576.93L414.07 536.93L414.07 456.93zM552.64 536.93L621.92 576.93L621.92 656.93L552.64 696.93L483.35 656.93L483.35 576.93zM621.92 -63.07L691.21 -23.07L691.21 56.93L621.92 96.93L552.64 56.93L552.64 -23.07zM691.21 536.93L760.49 576.93L760.49 656.93L691.21 696.93L621.92 656.93L621.92 576.93zM760.49 176.93L829.77 216.93L829.77 296.93L760.49 336.93L691.21 296.93L691.21 216.93zM829.77 296.93L899.06 336.93L899.06 416.93L829.77 456.93L760.49 416.93L760.49 336.93zM829.77 536.93L899.06 576.93L899.06 656.93L829.77 696.93L760.49 656.93L760.49 576.93zM760.49 896.93L829.77 936.93L829.77 1016.93L760.49 1056.93L691.21 1016.93L691.21 936.93zM968.34 56.93L1037.63 96.93L1037.63 176.93L968.34 216.93L899.06 176.93L899.06 96.93zM899.06 416.93L968.34 456.93L968.34 536.93L899.06 576.93L829.77 536.93L829.77 456.93zM899.06 656.93L968.34 696.93L968.34 776.93L899.06 816.93L829.77 776.93L829.77 696.93zM968.34 776.93L1037.63 816.93L1037.63 896.93L968.34 936.93L899.06 896.93L899.06 816.93zM1106.91 56.93L1176.19 96.93L1176.19 176.93L1106.91 216.93L1037.63 176.93L1037.63 96.93zM1037.63 656.93L1106.91 696.93L1106.91 776.93L1037.63 816.93L968.34 776.93L968.34 696.93zM1176.19 176.93L1245.48 216.93L1245.48 296.93L1176.19 336.93L1106.91 296.93L1106.91 216.93zM1176.19 416.93L1245.48 456.93L1245.48 536.93L1176.19 576.93L1106.91 536.93L1106.91 456.93zM1384.05 56.93L1453.33 96.93L1453.33 176.93L1384.05 216.93L1314.76 176.93L1314.76 96.93zM1314.76 656.93L1384.05 696.93L1384.05 776.93L1314.76 816.93L1245.48 776.93L1245.48 696.93zM1453.33 416.93L1522.61 456.93L1522.61 536.93L1453.33 576.93L1384.05 536.93L1384.05 456.93zM1453.33 656.93L1522.61 696.93L1522.61 776.93L1453.33 816.93L1384.05 776.93L1384.05 696.93zM1591.9 -63.07L1661.18 -23.07L1661.18 56.93L1591.9 96.93L1522.61 56.93L1522.61 -23.07zM1730.47 -63.07L1799.75 -23.07L1799.75 56.93L1730.47 96.93L1661.18 56.93L1661.18 -23.07zM1799.75 56.93L1869.03 96.93L1869.03 176.93L1799.75 216.93L1730.47 176.93L1730.47 96.93zM1869.03 -63.07L1938.32 -23.07L1938.32 56.93L1869.03 96.93L1799.75 56.93L1799.75 -23.07zM1869.03 176.93L1938.32 216.93L1938.32 296.93L1869.03 336.93L1799.75 296.93L1799.75 216.93zM1938.32 536.93L2007.6 576.93L2007.6 656.93L1938.32 696.93L1869.03 656.93L1869.03 576.93zM1938.32 776.93L2007.6 816.93L2007.6 896.93L1938.32 936.93L1869.03 896.93L1869.03 816.93zM1869.03 896.93L1938.32 936.93L1938.32 1016.93L1869.03 1056.93L1799.75 1016.93L1799.75 936.93zM2076.89 56.93L2146.17 96.93L2146.17 176.93L2076.89 216.93L2007.6 176.93L2007.6 96.93zM2076.89 536.93L2146.17 576.93L2146.17 656.93L2076.89 696.93L2007.6 656.93L2007.6 576.93zM2076.89 776.93L2146.17 816.93L2146.17 896.93L2076.89 936.93L2007.6 896.93L2007.6 816.93z" stroke="rgba(0, 115, 115, 1)" stroke-width="2"></path><path d="M125.23 65.29L210.11 114.29L210.11 212.29L125.23 261.29L40.36 212.29L40.36 114.29zM125.23 359.29L210.11 408.29L210.11 506.29L125.23 555.29L40.36 506.29L40.36 408.29zM40.36 506.29L125.23 555.29L125.23 653.29L40.36 702.29L-44.51 653.29L-44.51 555.29zM294.98 359.29L379.85 408.29L379.85 506.29L294.98 555.29L210.11 506.29L210.11 408.29zM210.11 800.29L294.98 849.29L294.98 947.29L210.11 996.29L125.23 947.29L125.23 849.29zM464.72 65.29L549.6 114.29L549.6 212.29L464.72 261.29L379.85 212.29L379.85 114.29zM379.85 212.29L464.72 261.29L464.72 359.29L379.85 408.29L294.98 359.29L294.98 261.29zM464.72 359.29L549.6 408.29L549.6 506.29L464.72 555.29L379.85 506.29L379.85 408.29zM464.72 653.29L549.6 702.29L549.6 800.29L464.72 849.29L379.85 800.29L379.85 702.29zM549.6 -81.71L634.47 -32.71L634.47 65.29L549.6 114.29L464.72 65.29L464.72 -32.71zM549.6 800.29L634.47 849.29L634.47 947.29L549.6 996.29L464.72 947.29L464.72 849.29zM634.47 947.29L719.34 996.29L719.34 1094.29L634.47 1143.29L549.6 1094.29L549.6 996.29zM889.09 -81.71L973.96 -32.71L973.96 65.29L889.09 114.29L804.22 65.29L804.22 -32.71zM889.09 506.29L973.96 555.29L973.96 653.29L889.09 702.29L804.22 653.29L804.22 555.29zM1058.83 -81.71L1143.71 -32.71L1143.71 65.29L1058.83 114.29L973.96 65.29L973.96 -32.71zM1143.71 359.29L1228.58 408.29L1228.58 506.29L1143.71 555.29L1058.83 506.29L1058.83 408.29zM1143.71 947.29L1228.58 996.29L1228.58 1094.29L1143.71 1143.29L1058.83 1094.29L1058.83 996.29zM1228.58 212.29L1313.45 261.29L1313.45 359.29L1228.58 408.29L1143.71 359.29L1143.71 261.29zM1313.45 653.29L1398.33 702.29L1398.33 800.29L1313.45 849.29L1228.58 800.29L1228.58 702.29zM1483.2 65.29L1568.07 114.29L1568.07 212.29L1483.2 261.29L1398.33 212.29L1398.33 114.29zM1568.07 -81.71L1652.95 -32.71L1652.95 65.29L1568.07 114.29L1483.2 65.29L1483.2 -32.71zM1652.95 65.29L1737.82 114.29L1737.82 212.29L1652.95 261.29L1568.07 212.29L1568.07 114.29zM1737.82 -81.71L1822.69 -32.71L1822.69 65.29L1737.82 114.29L1652.95 65.29L1652.95 -32.71zM1822.69 653.29L1907.56 702.29L1907.56 800.29L1822.69 849.29L1737.82 800.29L1737.82 702.29zM1992.44 947.29L2077.31 996.29L2077.31 1094.29L1992.44 1143.29L1907.56 1094.29L1907.56 996.29z" stroke="rgba(0, 80, 80, 1)" stroke-width="2"></path></g><defs><mask id="SvgjsMask1064"><rect width="2000" height="1000" fill="#ffffff"></rect></mask><linearGradient x1="12.5%" y1="-25%" x2="87.5%" y2="125%" gradientUnits="userSpaceOnUse" id="SvgjsLinearGradient1065"><stop stop-color="rgba(18, 86, 83, .92)" offset="0"></stop><stop stop-color="rgba(32, 131, 148, .92)" offset="1"></stop></linearGradient></defs></svg>