<svg xmlns="http://www.w3.org/2000/svg" version="1.1" xmlns:xlink="http://www.w3.org/1999/xlink" xmlns:svgjs="http://svgjs.dev/svgjs" width="1920" height="1080" preserveAspectRatio="none" viewBox="0 0 1920 1080"><g mask="url(&quot;#SvgjsMask1022&quot;)" fill="none"><rect width="1920" height="1080" x="0" y="0" fill="rgba(0, 110, 110, 1)"></rect><path d="M0,755.235C167.691,763.56,357.905,866.884,493.336,767.646C630.066,667.456,560.996,442.497,634.95,289.972C711.627,131.83,916.569,41.435,930.401,-133.771C944.541,-312.882,843.352,-495.882,706.146,-611.879C574.819,-722.906,382.249,-691.495,216.497,-737.322C54.187,-782.197,-103.506,-945.597,-257.929,-878.427C-416.556,-809.428,-407.033,-577.635,-494.169,-428.2C-561.232,-313.189,-670.998,-229.283,-710.57,-102.165C-754.732,39.699,-774.313,191.781,-731.454,334.044C-685.291,487.276,-601.515,640.317,-462.829,720.176C-325.979,798.978,-157.723,747.405,0,755.235" fill="#004848"></path><path d="M1920 1485.048C1996.493 1475.6779999999999 2068.412 1453.242 2135.531 1415.372 2206.035 1375.592 2281.346 1333.988 2316.754 1261.191 2352.462 1187.778 2323.235 1103.008 2327.126 1021.4639999999999 2332.125 916.693 2396.197 803.9 2342.881 713.571 2289.853 623.729 2171.016 583.005 2066.727 580.2919999999999 1969.917 577.774 1903.092 679.726 1808.324 699.6659999999999 1700.556 722.341 1556.671 619.453 1484.647 702.764 1412.588 786.115 1534.769 913.684 1528.214 1023.67 1522.496 1119.613 1420.8519999999999 1203.147 1449.353 1294.937 1477.753 1386.402 1578.833 1436.817 1667.635 1472.687 1747.341 1504.883 1834.675 1495.5 1920 1485.048" fill="#009595"></path></g><defs><mask id="SvgjsMask1022"><rect width="1920" height="1080" fill="#ffffff"></rect></mask></defs></svg>