<svg xmlns="http://www.w3.org/2000/svg" version="1.1" xmlns:xlink="http://www.w3.org/1999/xlink" xmlns:svgjs="http://svgjs.dev/svgjs" width="1440" height="700" preserveAspectRatio="none" viewBox="0 0 1440 700"><g mask="url(&quot;#SvgjsMask1098&quot;)" fill="none"><rect width="1440" height="700" x="0" y="0" fill="rgba(0, 128, 94, 1)"></rect><path d="M0,583.12C113.803,574.162,229.384,567.973,327.308,509.301C427.009,449.565,511.399,361.018,552.28,252.218C591.9,146.776,585.941,27.331,548.298,-78.833C514.246,-174.869,413.313,-223.901,354.065,-306.799C286.27,-401.656,285.035,-558.161,176.071,-599.644C68.612,-640.554,-45.408,-552.899,-145.981,-497.167C-229.879,-450.675,-292.021,-379.932,-353.411,-306.233C-413.62,-233.953,-480.621,-163.929,-500.207,-71.919C-520.467,23.257,-484.328,116.661,-463.675,211.753C-437.235,333.494,-459.424,485.697,-362.188,563.575C-265.869,640.719,-123.023,592.804,0,583.12" fill="#00533d"></path><path d="M1440 1319.35C1559.456 1329.411 1674.943 1286.491 1780.992 1230.594 1894.5529999999999 1170.738 2031.865 1110.222 2069.566 987.5129999999999 2107.281 864.76 1997.789 748.93 1967.3049999999998 624.185 1940.593 514.877 1976.771 383.752 1901.569 300.048 1826.475 216.464 1691.248 241.591 1586.664 200.51 1468.117 153.94399999999996 1371.908 17.682999999999993 1247.076 42.960000000000036 1123.6109999999999 67.96000000000004 1073.8609999999999 216.76999999999998 1000.527 319.195 933.988 412.129 854.638 500.363 838.56 613.526 822.494 726.601 859.069 839.936 912.174 941.05 963.3050000000001 1038.406 1044.645 1112.046 1134.025 1176.106 1227.451 1243.065 1325.462 1309.704 1440 1319.35" fill="#00ad7f"></path></g><defs><mask id="SvgjsMask1098"><rect width="1440" height="700" fill="#ffffff"></rect></mask></defs></svg>