<svg xmlns="http://www.w3.org/2000/svg" version="1.1" xmlns:xlink="http://www.w3.org/1999/xlink" xmlns:svgjs="http://svgjs.dev/svgjs" width="1200" height="500" preserveAspectRatio="none" viewBox="0 0 1200 500"><g mask="url(&quot;#SvgjsMask1085&quot;)" fill="none"><rect width="1200" height="500" x="0" y="0" fill="rgba(2, 128, 144, 1)"></rect><path d="M0,566.288C103.504,543.908,137.752,410.213,227.231,353.578C317.709,296.311,460.692,326.689,519.708,237.343C577.974,149.133,536.37,28.945,509.133,-73.202C484.235,-166.578,427.681,-243.168,370.759,-321.264C308.62,-406.517,265.831,-534.298,161.527,-550.11C54.591,-566.321,-25.69,-454.573,-115.999,-395.055C-180.17,-352.763,-243.45,-312.516,-290.817,-251.994C-336.36,-193.802,-353.845,-123.195,-382.181,-54.949C-420.962,38.455,-503.573,122.925,-487.971,222.849C-471.787,326.496,-386.359,407.324,-300.573,467.701C-212.563,529.644,-105.192,589.033,0,566.288" fill="#01535e"></path><path d="M1200 924.977C1293.62 926.442 1387.897 962.071 1475.185 928.196 1571.031 891 1653.772 819.9639999999999 1703.071 729.745 1754.156 636.2570000000001 1767.69 526.009 1752.58 420.551 1737.4650000000001 315.06100000000004 1695.214 211.29000000000002 1618.229 137.603 1544.34 66.87900000000002 1441.588 30.345000000000027 1339.441 25.107000000000028 1248.456 20.440999999999974 1175.524 95.84899999999999 1085.57 110.28699999999998 975.965 127.87900000000002 850.144 54.286 759.386 118.20600000000002 669.585 181.452 636.184 310.82 645.441 420.266 654.199 523.806 755.3820000000001 589.28 806.865 679.539 852.377 759.331 852.375 871.0219999999999 930.2950000000001 919.669 1008.1469999999999 968.273 1108.233 923.5409999999999 1200 924.977" fill="#03adc2"></path></g><defs><mask id="SvgjsMask1085"><rect width="1200" height="500" fill="#ffffff"></rect></mask></defs></svg>