<svg xmlns="http://www.w3.org/2000/svg" version="1.1" width="1440" height="700"
     preserveAspectRatio="none" viewBox="0 0 1440 700"><g mask="url(&quot;#SvgjsMask1081&quot;)" fill="none"><rect width="1440" height="700" x="0" y="0" fill="rgba(0, 128, 94, 1)"></rect><path d="M0,558.022C125.986,587.652,269.471,658.68,379.071,589.846C488.511,521.113,459.196,351.768,514.434,234.934C570.728,115.866,701.561,30.136,705.93,-101.497C710.46,-237.98,639.418,-374.808,537.694,-465.914C440.193,-553.238,298.65,-553.919,170.585,-580.96C52.78,-605.834,-66.086,-652.423,-181.387,-617.747C-296.4,-583.158,-397.403,-499.246,-453.767,-393.191C-505.772,-295.338,-447.354,-175.763,-473.514,-68.081C-503.938,57.154,-664.204,161.908,-617.833,282.155C-572.391,399.992,-394.848,383.46,-279.527,434.952C-184.645,477.318,-101.151,534.233,0,558.022" fill="#00533d"></path><path d="M1440 1269.5520000000001C1545.334 1277.521 1634.339 1197.591 1720.564 1136.566 1803.388 1077.9479999999999 1873.687 1008.3620000000001 1929.127 923.377 1992.4850000000001 826.254 2095.924 721.745 2063.872 610.301 2030.953 495.84000000000003 1866.045 487.75800000000004 1780.121 405.283 1705.656 333.807 1693.026 202.488 1597.719 162.86 1501.507 122.856 1396.456 183.553 1294.13 203.212 1179.585 225.219 1042.6680000000001 201.64100000000002 961.23 285.144 879.645 368.798 894.907 503.91999999999996 887.152 620.513 879.939 728.958 860.025 846.42 917.776 938.492 973.931 1028.019 1096.195 1039.5 1185.452 1096.084 1273.966 1152.196 1335.498 1261.646 1440 1269.5520000000001" fill="#00ad7f"></path></g><defs><mask id="SvgjsMask1081"><rect width="1440" height="700" fill="#ffffff"></rect></mask></defs></svg>