<svg xmlns="http://www.w3.org/2000/svg" version="1.1" xmlns:xlink="http://www.w3.org/1999/xlink" xmlns:svgjs="http://svgjs.dev/svgjs" width="1440" height="700" preserveAspectRatio="none" viewBox="0 0 1440 700"><g mask="url(&quot;#SvgjsMask1033&quot;)" fill="none"><rect width="1440" height="700" x="0" y="0" fill="rgba(0, 128, 94, 1)"></rect><path d="M0,507.262C93.297,510.221,155.489,414.567,234.995,365.66C316.514,315.515,423.778,298.051,473.273,216.136C524.139,131.951,535.136,19.813,499.311,-71.79C465.15,-159.137,351.026,-180.072,290.349,-251.589C228.677,-324.279,229.502,-448.317,144.036,-490.541C58.275,-532.91,-44.408,-490.709,-135.674,-462.062C-225.536,-433.856,-317.831,-399.967,-377.273,-326.909C-435.949,-254.794,-466.417,-158.448,-458.041,-65.856C-450.342,19.25,-375.518,77.853,-333.907,152.49C-296.436,219.701,-278.349,295.019,-225.609,351.054C-161.623,419.038,-93.313,504.303,0,507.262" fill="#00533d"></path><path d="M1440 1272.748C1547.709 1279.804 1642.274 1213.6309999999999 1737.836 1163.441 1842.319 1108.566 1956.5259999999998 1063.692 2023.309 966.3879999999999 2096.105 860.323 2139.851 729.329 2123.348 601.749 2106.755 473.473 2027.098 361.658 1933.533 272.351 1845.33 188.16199999999998 1730.21 144.18899999999996 1612.126 113.793 1497.272 84.22799999999995 1377.668 66.755 1263.812 99.95799999999997 1149.839 133.19500000000005 1064.0430000000001 218.038 977.173 298.958 880.518 388.993 734.116 465.81600000000003 729.341 597.823 724.489 731.953 869.102 818.23 954.649 921.652 1018.435 998.7660000000001 1085.144 1067.341 1166.229 1125.996 1251.855 1187.937 1334.545 1265.8400000000001 1440 1272.748" fill="#00ad7f"></path></g><defs><mask id="SvgjsMask1033"><rect width="1440" height="700" fill="#ffffff"></rect></mask></defs></svg>