<svg xmlns="http://www.w3.org/2000/svg" version="1.1" xmlns:xlink="http://www.w3.org/1999/xlink" xmlns:svgjs="http://svgjs.dev/svgjs" width="1440" height="700" preserveAspectRatio="none" viewBox="0 0 1440 700"><g mask="url(&quot;#SvgjsMask1107&quot;)" fill="none"><rect width="1440" height="700" x="0" y="0" fill="rgba(0, 128, 94, 1)"></rect><path d="M0,463.108C97.596,456.497,201.268,493.673,287.044,446.649C374.529,398.688,408.001,295.085,460.846,210.461C522.176,112.251,636.542,25.444,621.792,-89.4C607.063,-204.077,478.295,-263.177,390.37,-338.257C315.038,-402.584,237.228,-458.258,145.637,-495.993C44.82,-537.529,-58.393,-580.275,-166.712,-567.77C-285.833,-554.018,-414.589,-517.667,-487.986,-422.842C-560.702,-328.897,-553.072,-196.984,-545.476,-78.428C-538.964,23.198,-486.47,110.296,-447.789,204.498C-407.312,303.074,-405.453,434.015,-313.174,487.309C-220.631,540.755,-106.623,470.331,0,463.108" fill="#00533d"></path><path d="M1440 1316.995C1553.637 1289.3690000000001 1597.838 1154.057 1675.763 1066.854 1731.122 1004.905 1782.67 945.992 1831.559 878.819 1893.672 793.475 1992.245 724.412 2001.518 619.266 2011.221 509.252 1968.086 385.806 1881.034 317.842 1795.336 250.935 1668.778 306.717 1564.002 277.687 1461.677 249.336 1383.086 131.05499999999995 1278.7930000000001 150.981 1175.251 170.764 1133.472 294.929 1063.077 373.395 991.202 453.51 870.177 509.509 860.937 616.7429999999999 851.661 724.391 975.086 793.554 1018.341 892.565 1062.666 994.0260000000001 1038.893 1124.162 1116.9279999999999 1202.71 1199.101 1285.423 1326.708 1344.537 1440 1316.995" fill="#00ad7f"></path></g><defs><mask id="SvgjsMask1107"><rect width="1440" height="700" fill="#ffffff"></rect></mask></defs></svg>