<svg xmlns="http://www.w3.org/2000/svg" version="1.1" xmlns:xlink="http://www.w3.org/1999/xlink" xmlns:svgjs="http://svgjs.dev/svgjs" width="1440" height="700" preserveAspectRatio="none" viewBox="0 0 1440 700"><g mask="url(&quot;#SvgjsMask1078&quot;)" fill="none"><rect width="1440" height="700" x="0" y="0" fill="rgba(0, 128, 94, 1)"></rect><path d="M0,615.032C116.791,611.054,135.701,427.285,233.182,362.838C328.566,299.777,484.578,344.906,550.211,251.273C614.523,159.525,576.325,28.756,542.159,-77.951C511.32,-174.265,446.957,-255.786,367.73,-318.64C297.41,-374.428,207.343,-387.554,120.996,-412.076C35.493,-436.358,-47.538,-474.141,-135.527,-461.562C-231.002,-447.913,-334.063,-416.66,-391.078,-338.871C-447.348,-262.098,-407.429,-154.421,-428.654,-61.631C-452.56,42.883,-564.754,140.106,-523.25,238.96C-482.056,337.076,-330.03,316.975,-243.62,379.08C-149.922,446.423,-115.321,618.96,0,615.032" fill="#00533d"></path><path d="M1440 1100.742C1520.359 1118.982 1616.019 1125.62 1680.797 1074.688 1745.4270000000001 1023.873 1744.66 927.517 1762.416 847.2429999999999 1776.7939999999999 782.242 1777.705 718.419 1774.307 651.934 1770.561 578.636 1782.1019999999999 499.882 1741.538 438.716 1699.27 374.981 1623.731 344.8 1552.374 317.288 1475.79 287.761 1395.699 259.318 1314.992 274.261 1230.173 289.965 1145.8890000000001 331.531 1095.87 401.81 1047.27 470.096 1066.1680000000001 561.614 1051.718 644.174 1036.696 729.998 963.172 822.769 1009.246 896.719 1056.83 973.0930000000001 1179.187 940.774 1260.51 979.2919999999999 1327.146 1010.854 1368.096 1084.421 1440 1100.742" fill="#00ad7f"></path></g><defs><mask id="SvgjsMask1078"><rect width="1440" height="700" fill="#ffffff"></rect></mask></defs></svg>